<svg id="Capa_1" enable-background="new 0 0 512 512" height="512" viewBox="0 0 512 512" width="512" xmlns="http://www.w3.org/2000/svg"><g><g><g><g><g><g><g><circle cx="256" cy="256" fill="#b180ff" r="256"/></g></g></g></g></g></g><path d="m511.529 271.666-80.01-80.01-190.091 50.583-104.428-47.239-57.315 124.469 192.055 192.055c128.873-7.817 232.009-110.976 239.789-239.858z" fill="#8c46f9"/><g><path d="m255.604 215.257c-5.834-4.598-12.606-9.675-19.999-14.755-34.281-23.556-64.823-35.5-90.777-35.5-50.177 0-90.998 40.822-90.998 90.999s40.822 90.999 90.998 90.999c31.517 0 64.031-16.563 89.076-33.538 4.723-3.201 6.308-9.157 10.443-12.279 3.27-2.469 9.211-2.14 12.05-4.438.427.337.87-.818 1.308-.476v-80.823c-.712.567-1.416-.744-2.101-.189zm-51.492 52.709c-6.746 4.677-16.581 2.052-22.778 5.416-14.32 7.773-26.903 11.927-36.506 11.927-16.16 0-29.308-13.147-29.308-29.308 0-16.16 13.147-29.308 29.307-29.308 16.278 0 41.342 13.929 62.945 29.602-2.231 1.655-1.249 10-3.66 11.671z" fill="#fff"/></g><g><path d="m256.397 296.745c5.835 4.598 12.606 9.675 20 14.755 34.281 23.556 64.823 35.5 90.777 35.5 50.177 0 90.998-40.822 90.998-90.998 0-24.307-9.466-47.159-26.653-64.347-17.188-17.188-40.04-26.653-64.346-26.653-32.75 0-66.576 17.885-91.981 35.532-3.641 2.529-.753 10.328-4.02 12.794s-12.69-.4-15.527 1.896l-.041.033zm75.763-58.925c13.701-7.258 25.745-11.126 35.012-11.126 7.829 0 15.189 3.048 20.724 8.584 5.535 5.535 8.584 12.896 8.584 20.724 0 16.161-13.147 29.308-29.307 29.308-16.277 0-41.342-13.929-62.945-29.602l2.454-17.185z" fill="#e9edf5"/></g><g><path d="m311.201 250.704c7.291-5.054 14.32-9.367 20.959-12.884l-56.969-37.286c-7.3 5.07-13.904 10.121-19.588 14.723l48.624 40.451c2.233-1.656 4.563-3.333 6.974-5.004z" fill="#bec3d2"/></g><g><path d="m200.8 261.299c-6.747 4.677-13.27 8.719-19.468 12.084l52.572 40.079c8.458-5.732 16.064-11.512 22.493-16.716l-48.624-40.451c-2.232 1.655-4.562 3.333-6.973 5.004z" fill="#dce1eb"/></g></g></svg>
