<svg xmlns="http://www.w3.org/2000/svg" viewBox="0 0 512 512">
  <defs>
    <linearGradient id="bg" x1="0" y1="0" x2="1" y2="1">
      <stop offset="0" stop-color="#6871FA"/>
      <stop offset=".45" stop-color="#5952F4"/>
      <stop offset="1" stop-color="#3E25C7"/>
    </linearGradient>
    <linearGradient id="inf" x1="0" y1="0" x2="0" y2="1">
      <stop offset="0" stop-color="#FFFFFF"/>
      <stop offset="1" stop-color="#D6D0FA"/>
    </linearGradient>
  </defs>
  <rect width="512" height="512" rx="118" fill="url(#bg)"/>
  <text x="256" y="384" text-anchor="middle" font-family="-apple-system,'SF Pro Display','Helvetica Neue',sans-serif" font-size="340" font-weight="800" letter-spacing="-14" fill="rgba(255,255,255,.09)">FCA</text>
  <path d="M256,256 C216,196 136,196 136,256 C136,316 216,316 256,256 C296,196 376,196 376,256 C376,316 296,316 256,256 Z" fill="none" stroke="rgba(20,10,80,.35)" stroke-width="54" stroke-linejoin="round" transform="translate(0 10)"/>
  <path d="M256,256 C216,196 136,196 136,256 C136,316 216,316 256,256 C296,196 376,196 376,256 C376,316 296,316 256,256 Z" fill="none" stroke="url(#inf)" stroke-width="54" stroke-linejoin="round"/>
  <path d="M404 88 L420 132 464 148 420 164 404 208 388 164 344 148 388 132 Z" fill="#FFD86B"/>
</svg>
